<?xml version="1.0" standalone="no"?>
<!DOCTYPE svg PUBLIC "-//W3C//DTD SVG 20010904//EN"
 "http://www.w3.org/TR/2001/REC-SVG-20010904/DTD/svg10.dtd">
<svg version="1.0" xmlns="http://www.w3.org/2000/svg"
 width="512.000000pt" height="512.000000pt" viewBox="0 0 512.000000 512.000000"
 preserveAspectRatio="xMidYMid meet">

<g transform="translate(0.000000,512.000000) scale(0.100000,-0.100000)"
fill="#000000" stroke="none">
<path d="M1025 2673 c-331 -257 -577 -553 -754 -910 -238 -477 -318 -1004
-235 -1546 17 -114 35 -152 86 -191 42 -30 101 -24 293 28 185 51 206 61 236
109 22 34 22 84 -1 242 -13 93 -13 340 0 445 34 270 127 543 261 765 113 187
287 386 448 510 49 39 89 75 88 81 -2 14 -350 513 -357 513 -3 0 -32 -21 -65
-46z"/>
<path d="M3613 2316 c-22 -8 -54 -23 -71 -34 -16 -12 -175 -212 -353 -444
-346 -453 -450 -570 -597 -672 -49 -35 -104 -64 -135 -72 -123 -32 -229 -104
-290 -196 -133 -203 -106 -454 68 -616 188 -177 461 -177 649 -1 101 94 156
222 156 366 0 70 33 169 101 304 56 113 58 115 418 584 173 226 323 425 334
442 10 18 21 59 24 91 10 111 -61 215 -168 246 -62 19 -80 19 -136 2z m-965
-1558 c129 -79 66 -288 -88 -288 -116 0 -194 124 -142 226 25 48 40 62 89 80
45 16 96 10 141 -18z"/>
</g>
</svg>
